<svg viewBox="0 0 234 245" fill="none" xmlns="http://www.w3.org/2000/svg">
    <path d="M221.144 184.809L109.256 240.137C98.3333 245.534 83.851 241.579 76.8988 231.293L5.66285 125.967C0.413092 118.189 0.971323 109.029 6.28047 102.701L47.9262 52.2406L224.7 100.531L231.79 165.124C232.974 173.054 229.102 180.872 221.14 184.813L221.144 184.809Z"
          fill="#7F42E1" stroke="#191919" stroke-width="4" stroke-linecap="round" stroke-linejoin="round"/>
    <path d="M103.915 151.2L48.4082 69.1182C42.9922 61.1058 45.4983 51.2008 54.0064 46.9954L141.197 3.88449C149.706 -0.325252 160.997 2.75844 166.413 10.7708L221.919 92.8522C227.335 100.865 224.829 110.77 216.321 114.975L129.13 158.086C120.622 162.296 109.331 159.212 103.915 151.2Z"
          fill="white" stroke="#191919" stroke-width="4" stroke-linecap="round" stroke-linejoin="round"/>
    <path d="M92.8938 239.891L114.293 160.266" stroke="#191919" stroke-width="4" stroke-linecap="round"
          stroke-linejoin="round"/>
    <path d="M165.293 101.948C165.293 101.948 163.456 100.216 161.769 97.7168C152.264 83.6497 169.288 72.7052 162.007 61.9297C158.499 56.7411 151.709 54.7878 145.03 58.3349C142.754 59.5433 141.119 61.0245 139.951 62.601C139.424 63.3156 140.766 64.3811 140.766 64.3811L137.654 75.2692L124.902 76.3476C124.902 76.3476 122.867 70.4271 124.423 63.4325C125.651 57.9192 128.026 50.6907 128.026 50.6907C142.168 43.1808 164.675 34.2199 173.599 54.4154C177.891 64.1255 165.744 78.9419 178.999 85.4298L175.887 96.3179L165.281 101.953H165.289L165.293 101.948ZM174.597 98.4444C178.425 96.4089 187.638 101.212 190.267 105.101C190.267 105.101 187.982 112.724 187.602 114.603C187.222 116.483 186.035 118.133 184.118 119.147C180.29 121.182 175.321 119.753 172.692 115.859C171.437 114.001 170.99 111.988 171.287 110.173C171.612 108.189 174.597 98.4401 174.597 98.4401V98.4444Z"
          fill="#7F42E1" stroke="#191919" stroke-width="4" stroke-linecap="round" stroke-linejoin="round"/>
    <path d="M168.405 91.0594C168.405 91.0594 166.568 89.327 164.882 86.828C155.376 72.7609 172.4 61.8164 165.119 51.0409C161.611 45.8523 154.822 43.899 148.143 47.4461C137.631 53.0288 140.771 64.3761 140.771 64.3761L128.018 65.4545C128.018 65.4545 121.51 46.5366 140.656 36.3674C154.798 28.8574 169.704 33.1451 176.715 43.5222C189.254 62.0806 169.498 71.3577 178.869 85.2256L179.004 85.4248L168.397 91.0594H168.405ZM177.931 94.4939C181.759 92.4583 186.728 93.8876 189.357 97.7812C191.986 101.67 191.063 106.231 187.235 108.262C183.406 110.293 178.438 108.869 175.809 104.975C173.18 101.086 174.102 96.5251 177.931 94.4939Z"
          fill="white" stroke="#191919" stroke-width="4" stroke-linecap="round" stroke-linejoin="round"/>
    <path d="M168.405 91.0582L165.289 101.942" stroke="#191919" stroke-width="4" stroke-linecap="round"
          stroke-linejoin="round"/>
    <path d="M128.018 65.4545L124.906 76.3426" stroke="#191919" stroke-width="4" stroke-linecap="round"
          stroke-linejoin="round"/>
</svg>
