<svg viewBox="0 0 207 198" fill="none" xmlns="http://www.w3.org/2000/svg">
    <path d="M195.17 149.43L96.5437 194.052C86.9153 198.404 74.1495 195.215 68.0213 186.92L5.22886 101.976C0.601347 95.7028 1.09341 88.3154 5.77327 83.2123L42.4828 42.5166L198.304 81.4623L204.554 133.555C205.597 139.951 202.184 146.255 195.166 149.434L195.17 149.43Z"
          fill="#7F42E1" stroke="#191919" stroke-width="4" stroke-linecap="round" stroke-linejoin="round"/>
    <path d="M91.8352 122.325L42.9078 56.128C38.1337 49.6662 40.3427 41.678 47.8424 38.2864L124.699 3.51815C132.199 0.123058 142.152 2.61 146.926 9.07184L195.853 75.2691C200.627 81.7309 198.418 89.7192 190.918 93.1108L114.062 127.879C106.562 131.274 96.6093 128.787 91.8352 122.325Z"
          fill="white" stroke="#191919" stroke-width="4" stroke-linecap="round" stroke-linejoin="round"/>
    <path d="M82.1206 193.854L100.983 129.637" stroke="#191919" stroke-width="4" stroke-linecap="round"
          stroke-linejoin="round"/>
    <path d="M148.476 99.6975L152.367 87.0428L148.423 58.0273L135.291 53.1373L131.606 21.5371L127.715 34.1918L118.215 82.1003L138.847 72.2189L148.476 99.694V99.6975Z"
          fill="#7F42E1" stroke="#191919" stroke-width="4" stroke-linecap="round" stroke-linejoin="round"/>
    <path d="M152.367 87.0393L159.884 37.3564L139.503 47.1155L131.602 21.5371L122.103 69.4456L142.735 59.5642L152.363 87.0393H152.367Z"
          fill="white" stroke="#191919" stroke-width="4" stroke-linecap="round" stroke-linejoin="round"/>
    <path d="M142.738 59.5664L138.847 72.2246" stroke="#191919" stroke-width="4" stroke-linecap="round"
          stroke-linejoin="round"/>
</svg>
