<svg viewBox="0 0 204 196" fill="none" xmlns="http://www.w3.org/2000/svg">
    <path d="M192.457 147.336L95.163 191.355C85.6646 195.648 73.0713 192.502 67.0259 184.319L5.08161 100.522C0.516601 94.334 1.00202 87.0463 5.61867 82.0122L41.8323 41.8662L195.548 80.2859L201.714 131.675C202.744 137.984 199.377 144.204 192.453 147.339L192.457 147.336Z"
          fill="#7F42E1" stroke="#191919" stroke-width="3.7931" stroke-linecap="round" stroke-linejoin="round"/>
    <path d="M90.5179 120.596L42.2514 55.2934C37.5418 48.9188 39.721 41.0385 47.1194 37.6927L122.938 3.39411C130.336 0.0448812 140.155 2.49823 144.864 8.87279L193.131 74.1759C197.84 80.5504 195.661 88.4307 188.263 91.7765L112.444 126.075C105.046 129.424 95.2275 126.971 90.5179 120.596Z"
          fill="white" stroke="#191919" stroke-width="3.7931" stroke-linecap="round" stroke-linejoin="round"/>
    <path d="M80.9346 191.159L99.5423 127.81" stroke="#191919" stroke-width="3.7931" stroke-linecap="round"
          stroke-linejoin="round"/>
    <path d="M166.843 78.6322C164.43 87.0225 158.299 93.8002 149.582 97.7145C144.418 100.034 138.634 101.208 132.651 101.208C128.86 101.208 124.994 100.736 121.152 99.7854C116.646 98.669 112.366 96.9427 108.462 94.6926C106.713 93.6865 105.877 91.9223 105.904 90.1719C105.935 88.2871 108.29 81.027 108.29 81.027C108.29 81.027 112.225 84.9344 113.678 85.7648C116.728 87.5118 120.088 88.8625 123.634 89.7446C131.305 91.6432 139.016 91.1229 145.347 88.2767C151.248 85.627 155.352 81.1889 156.911 75.7723C157.648 73.2087 157.796 70.521 157.376 67.8161C157.249 66.9926 157.317 66.176 157.558 65.4214C157.992 64.0534 159.335 58.9951 159.335 58.9951C159.335 58.9951 167.077 62.8336 167.604 66.2346C168.248 70.397 168.004 74.5904 166.84 78.6322H166.843Z"
          fill="#7F42E1" stroke="#191919" stroke-width="3.7931" stroke-linecap="round" stroke-linejoin="round"/>
    <path d="M168.788 71.5088C166.375 79.8991 160.243 86.6768 151.527 90.5911C146.362 92.9101 140.579 94.0851 134.595 94.0851C130.805 94.0851 126.939 93.613 123.097 92.662C118.59 91.5456 114.311 89.8193 110.407 87.5692C106.775 85.4777 107.075 80.1231 110.896 78.3968C112.418 77.7076 114.173 77.811 115.623 78.6414C118.673 80.3884 122.033 81.7391 125.579 82.6212C133.249 84.5198 140.961 83.9995 147.292 81.1533C153.193 78.5036 157.296 74.0655 158.856 68.6488C159.593 66.0852 159.741 63.3976 159.321 60.6927C158.963 58.3806 160.164 56.1099 162.295 55.1451C165.428 53.7289 169.022 55.7102 169.549 59.1111C170.193 63.2735 169.948 67.467 168.785 71.5088H168.788Z"
          fill="white" stroke="#191919" stroke-width="3.7931" stroke-linecap="round" stroke-linejoin="round"/>
    <path d="M150.524 42.3327C150.524 42.3327 148.844 46.9948 148.441 48.6763C148.038 50.3578 146.84 51.8222 144.947 52.6699C141.16 54.372 136.016 52.9731 133.462 49.5446C132.081 47.6943 131.737 45.6268 132.312 43.8523C132.801 42.3431 134.371 37.7913 134.371 37.7913C138.158 36.0891 147.973 38.9042 150.527 42.3327H150.524Z"
          fill="#7F42E1" stroke="#191919" stroke-width="3.7931" stroke-linecap="round" stroke-linejoin="round"/>
    <path d="M149.44 36.4544C151.994 39.8794 150.996 44.0384 147.209 45.7406C143.422 47.4427 138.279 46.0438 135.724 42.6153C133.17 39.1902 134.168 35.0313 137.955 33.3291C141.742 31.6269 146.885 33.0259 149.44 36.4544Z"
          fill="white" stroke="#191919" stroke-width="3.7931" stroke-linecap="round" stroke-linejoin="round"/>
    <path d="M117.116 57.821C117.116 57.821 115.436 62.483 115.033 64.1645C114.63 65.846 113.432 67.3105 111.539 68.1581C107.752 69.8603 102.609 68.4613 100.054 65.0329C98.6736 63.1825 98.3294 61.1151 98.9043 59.3405C99.3931 57.8313 100.963 53.2795 100.963 53.2795C104.75 51.5774 114.565 54.3925 117.12 57.821H117.116Z"
          fill="#7F42E1" stroke="#191919" stroke-width="3.7931" stroke-linecap="round" stroke-linejoin="round"/>
    <path d="M116.033 51.9456C118.588 55.3706 117.589 59.5296 113.802 61.2318C110.015 62.934 104.872 61.535 102.318 58.1065C99.7631 54.6815 100.761 50.5225 104.548 48.8203C108.335 47.1181 113.479 48.5171 116.033 51.9456Z"
          fill="white" stroke="#191919" stroke-width="3.7931" stroke-linecap="round" stroke-linejoin="round"/>
</svg>
