<svg viewBox="0 0 234 198" fill="none" xmlns="http://www.w3.org/2000/svg">
    <path d="M231.645 71.4357L205.437 179.597C203.242 188.661 195.124 195.043 185.796 195.043H68.8348C65.825 195.043 63.114 193.993 60.9974 192.264L60.9848 192.258L21.7314 167.317L185.554 32.0557L226.478 58.1686L226.471 58.178C230.613 60.9509 232.931 66.1257 231.645 71.4357Z"
          fill="#7F42E1" stroke="#191919" stroke-width="4" stroke-linecap="round" stroke-linejoin="round"/>
    <path d="M28.2692 169.15H145.231C154.559 169.15 162.676 162.768 164.872 153.704L191.079 45.543C192.973 37.7242 187.047 30.1978 179.002 30.1978H62.0408C52.7126 30.1978 44.5952 36.5798 42.4 45.6436L16.1922 153.805C14.2989 161.624 20.2242 169.15 28.2692 169.15Z"
          fill="white" stroke="#191919" stroke-width="4" stroke-linecap="round" stroke-linejoin="round"/>
    <path d="M25.6223 66.8867L74.7701 86.451L91.1904 117.798L42.0426 98.2342L25.6223 66.8867Z" fill="#7F42E1"
          stroke="#191919" stroke-width="4" stroke-linecap="round" stroke-linejoin="round"/>
    <path d="M146.698 2L36.1458 132.191L2 66.9743L25.6225 66.8862L42.0428 98.2337L123.685 2.09117L146.698 2Z"
          fill="white" stroke="#191919" stroke-width="4" stroke-linecap="round" stroke-linejoin="round"/>
    <path d="M146.697 2L195.845 21.5643L85.2934 151.749L36.1457 132.187L146.697 2Z" fill="#7F42E1" stroke="#191919"
          stroke-width="4" stroke-linecap="round" stroke-linejoin="round"/>
</svg>
