<svg viewBox="0 0 22 22" fill="none" xmlns="http://www.w3.org/2000/svg">
    <path fill-rule="evenodd" clip-rule="evenodd"
          d="M21.1905 8.22461C21.363 7.9198 21.3653 7.54216 21.1866 7.23242L19.1866 3.76758C18.9821 3.41346 18.5825 3.22003 18.1778 3.27832L15.8086 3.62109C15.3906 3.32877 14.9463 3.07082 14.4795 2.85156L13.5889 0.62793C13.4369 0.248606 13.0689 3.8147e-05 12.6602 0H8.6602C8.25129 7.05719e-05 7.88328 0.249193 7.73149 0.628906L6.8438 2.85156C6.37712 3.07058 5.93278 3.32799 5.5147 3.62012L3.14263 3.27734C2.73798 3.21915 2.33824 3.41351 2.13384 3.76758L0.133837 7.23242C-0.0704422 7.58639 -0.0386581 8.02931 0.213915 8.35059L1.69634 10.2344C1.67431 10.4848 1.6602 10.7401 1.6602 11C1.6602 11.261 1.67419 11.5176 1.69634 11.7695L0.214891 13.6484C-0.0381947 13.9697 -0.0706081 14.4133 0.133837 14.7676L2.13384 18.2324C2.33822 18.5865 2.73799 18.7808 3.14263 18.7227L5.51567 18.3818C5.93324 18.6736 6.37724 18.9313 6.8438 19.1504L7.73149 21.3711C7.88331 21.7507 8.25133 21.9999 8.6602 22H12.6602C13.0689 22 13.4369 21.7514 13.5889 21.3721L14.4795 19.1494C14.9452 18.9308 15.3885 18.6733 15.8057 18.3818L18.1778 18.7227C18.5824 18.7809 18.9822 18.5865 19.1866 18.2324L21.1866 14.7676L21.252 14.6309C21.3793 14.3046 21.3275 13.9305 21.1065 13.6494L19.626 11.7666C19.6478 11.5151 19.6602 11.2595 19.6602 11C19.6602 10.7411 19.6478 10.4861 19.626 10.2354L21.1065 8.35059L21.1905 8.22461ZM17.8018 9.31738C17.6351 9.52943 17.5612 9.8 17.5967 10.0674C17.6378 10.376 17.6602 10.687 17.6602 11C17.6602 11.3136 17.6378 11.6249 17.5967 11.9336C17.5612 12.201 17.6351 12.4715 17.8018 12.6836L19.1163 14.3545L17.793 16.6465L15.6885 16.3428C15.4208 16.3043 15.1487 16.3766 14.9346 16.542C14.4433 16.9215 13.9009 17.2368 13.3204 17.4756C13.0708 17.5784 12.8729 17.7778 12.7725 18.0283L11.9834 20H9.33794L8.54985 18.0303C8.44945 17.7792 8.25109 17.5794 8.00102 17.4766C7.4208 17.238 6.87889 16.9221 6.38677 16.542C6.17273 16.3767 5.90053 16.3043 5.63286 16.3428L3.52837 16.6465L2.20513 14.3545L3.5186 12.6865L3.5772 12.6045C3.70303 12.4068 3.75583 12.1699 3.72466 11.9355C3.68323 11.625 3.6602 11.3129 3.6602 11C3.6602 10.6887 3.68335 10.3779 3.72466 10.0674L3.73247 9.9668C3.73979 9.73308 3.66541 9.50287 3.51958 9.31738L2.20513 7.64648L3.52837 5.35547L5.63188 5.6582C5.89963 5.69673 6.17172 5.62436 6.38579 5.45898C6.87756 5.079 7.41988 4.76337 8.00102 4.52441L8.09282 4.48145C8.2995 4.37088 8.46205 4.19034 8.54985 3.9707L9.33794 2H11.9834L12.7725 3.97168C12.8729 4.22222 13.0708 4.4216 13.3204 4.52441C13.9012 4.76335 14.4439 5.07897 14.9356 5.45898C15.1497 5.62443 15.4217 5.69578 15.6895 5.65723L17.793 5.35449L19.1163 7.64648L17.8018 9.31738ZM14.6602 11C14.6602 8.79089 12.8693 7.00005 10.6602 7C8.45114 7.00009 6.6602 8.79092 6.6602 11C6.6602 13.2091 8.45114 14.9999 10.6602 15C12.8693 14.9999 14.6602 13.2091 14.6602 11ZM12.6602 11C12.6602 12.1045 11.7647 12.9999 10.6602 13C9.55571 12.9999 8.6602 12.1045 8.6602 11C8.6602 9.89549 9.55571 9.00009 10.6602 9C11.7647 9.00005 12.6602 9.89546 12.6602 11Z"
          fill="#191919"/>
</svg>
