<svg viewBox="0 0 18 18" fill="none" xmlns="http://www.w3.org/2000/svg">
    <path d="M15.2998 3.59863C15.7968 3.59863 16.2001 3.19619 16.2002 2.69922C16.2002 2.20216 15.7969 1.79883 15.2998 1.79883H2.7002C2.20314 1.79883 1.7998 2.20216 1.7998 2.69922C1.79991 3.19619 2.2032 3.59863 2.7002 3.59863H15.2998ZM9 16.1992C9.49706 16.1992 9.90039 15.7959 9.90039 15.2988V9.37207L11.0635 10.5352C11.4149 10.8866 11.9845 10.8865 12.3359 10.5352C12.6874 10.1837 12.6874 9.61417 12.3359 9.2627L9.63672 6.5625C9.46794 6.39372 9.2387 6.29883 9 6.29883C8.7613 6.29883 8.53206 6.39372 8.36328 6.5625L5.66406 9.2627C5.31259 9.61417 5.31259 10.1837 5.66406 10.5352C6.01554 10.8865 6.58508 10.8866 6.93652 10.5352L8.09961 9.37207V15.2988C8.09961 15.7959 8.50294 16.1992 9 16.1992Z"
          fill="#191919"/>
</svg>
