<svg viewBox="0 0 18 18" fill="none" xmlns="http://www.w3.org/2000/svg">
    <path d="M15.2998 14.4014C15.7968 14.4014 16.2001 14.8038 16.2002 15.3008C16.2002 15.7978 15.7969 16.2012 15.2998 16.2012H2.7002C2.20314 16.2012 1.7998 15.7978 1.7998 15.3008C1.79991 14.8038 2.2032 14.4014 2.7002 14.4014H15.2998ZM9 1.80078C9.49706 1.80078 9.90039 2.20412 9.90039 2.70117V8.62793L11.0635 7.46484C11.4149 7.1134 11.9845 7.11347 12.3359 7.46484C12.6874 7.81632 12.6874 8.38583 12.3359 8.7373L9.63672 11.4375C9.46794 11.6063 9.2387 11.7012 9 11.7012C8.7613 11.7012 8.53206 11.6063 8.36328 11.4375L5.66406 8.7373C5.31259 8.38583 5.31259 7.81632 5.66406 7.46484C6.01554 7.11347 6.58508 7.1134 6.93652 7.46484L8.09961 8.62793V2.70117C8.09961 2.20412 8.50294 1.80078 9 1.80078Z"
          fill="#191919"/>
</svg>
