<svg viewBox="0 0 80 59" fill="none" xmlns="http://www.w3.org/2000/svg">
    <path d="M26.75 0C28.25 0 29.4167 0.416663 30.25 1.25C31.25 2.08334 31.75 3.08334 31.75 4.25C31.75 5.41667 31.25 6.41668 30.25 7.25001C29.4167 8.08334 28.5 8.66667 27.5 9C25.3333 9.66667 23.3333 11 21.5 13C19.8333 14.8333 19 17.3333 19 20.5C19 25.3333 21.1667 28.6667 25.5 30.5C32.1667 33.3333 35.5 38.1667 35.5 45C35.5 48.8333 34 52.1667 31 55C28.1667 57.6667 24.5 59 20 59C14 59 9.16667 56.6667 5.5 52C1.83333 47.1667 0 40.75 0 32.75C0 25.75 1.41667 19.8333 4.25 15C7.08333 10 10.5833 6.25001 14.75 3.75001C18.9167 1.25 22.9167 0 26.75 0ZM71.25 0C72.75 0 73.9167 0.416663 74.75 1.25C75.75 2.08334 76.25 3.08334 76.25 4.25C76.25 5.41667 75.75 6.41668 74.75 7.25001C73.9167 8.08334 73 8.66667 72 9C69.8333 9.66667 67.8333 11 66 13C64.3333 14.8333 63.5 17.3333 63.5 20.5C63.5 25.3333 65.6667 28.6667 70 30.5C76.6667 33.3333 80 38.1667 80 45C80 48.8333 78.5 52.1667 75.5 55C72.6667 57.6667 69 59 64.5 59C58.5 59 53.6667 56.6667 50 52C46.3333 47.1667 44.5 40.75 44.5 32.75C44.5 25.75 45.9167 19.8333 48.75 15C51.5833 10 55.0833 6.25001 59.25 3.75001C63.4167 1.25 67.4167 0 71.25 0Z"
          fill="#7F42E1"/>
</svg>
