<?xml version="1.0" encoding="UTF-8" standalone="no"?>
<svg
        width="236.67799"
        height="176.597"
        viewBox="0 0 236.67799 176.597"
        fill="none"
        version="1.1"
        id="svg4"
        xmlns="http://www.w3.org/2000/svg">
    <defs
            id="defs4"/>
    <path
            d="M 5,63.81641 V 5 H 33.67 V 63.81641 H 21.365 v -48.3574 h -4.06 v 48.3574 z m 32.484,0 V 5 h 13.659 c 5.168,0 8.955,1.3125 11.361,3.93751 2.406,2.5976 3.609,7.0684 3.609,13.4121 v 1.6406 c 0,3.4453 -0.328,6.3574 -0.984,8.7364 -0.656,2.3515 -1.654,4.1836 -2.994,5.496 -1.34,1.3126 -2.899,2.2559 -4.676,2.8301 -1.75,0.5469 -3.855,0.8203 -6.316,0.8203 h -1.354 v 21.9434 z m 12.387,-31.582 c 1.367,0 2.352,-0.5196 2.953,-1.5586 0.602,-1.0664 0.903,-2.8985 0.903,-5.4961 v -4.1016 c 0,-2.4609 -0.274,-4.1426 -0.821,-5.0449 -0.519,-0.9297 -1.504,-1.3945 -2.953,-1.3945 h -0.164 v 17.5957 z M 65.662,63.81641 71.814,5 h 19.032 l 6.972,58.81641 H 84.981 l -1.067,-12.9609 h -4.84 l -0.861,12.9609 z m 15.627,-48.3984 -1.641,25.1836 h 3.61 z M 99.5,63.81641 V 5 h 14.314 c 4.704,0 8.299,1.17579 10.788,3.52735 2.515,2.32426 3.773,5.75586 3.773,10.29496 v 0.8613 c 0,3.3086 -0.738,6.0156 -2.215,8.1211 -1.476,2.0781 -3.527,3.5137 -6.152,4.3066 1.449,0.3828 2.68,0.875 3.691,1.4766 1.039,0.5742 1.969,1.3808 2.789,2.4199 0.848,1.0391 1.477,2.3926 1.887,4.0606 0.438,1.6406 0.656,3.5957 0.656,5.8652 v 1.6816 c 0,5.4961 -1.312,9.5703 -3.937,12.2227 -2.598,2.6523 -6.33,3.9785 -11.197,3.9785 z m 12.551,-9.6387 c 1.586,0 2.707,-0.5058 3.363,-1.5175 0.656,-1.0118 0.984,-2.6387 0.984,-4.8809 v -5.127 c 0,-1.7773 -0.328,-3.1035 -0.984,-3.9785 -0.656,-0.875 -1.777,-1.3125 -3.363,-1.3125 h -0.246 v 16.8164 z m -0.082,-26.291 c 1.422,0 2.461,-0.4648 3.117,-1.3945 0.656,-0.9297 0.984,-2.3926 0.984,-4.3887 v -2.9121 c 0,-1.5859 -0.314,-2.7344 -0.943,-3.4453 -0.629,-0.7383 -1.682,-1.1074 -3.158,-1.1074 h -0.164 v 13.248 z m 19.605,35.9297 V 5 h 11.403 v 34.16601 h 0.082 L 150.072,5 h 14.192 v 58.81641 h -11.403 v -34.166 h -0.082 l -7.013,34.166 z m 34.289,-11.4434 c 0.328,0.0821 0.739,0.1231 1.231,0.1231 1.066,0 1.859,-0.3692 2.379,-1.1074 0.547,-0.7383 0.97,-2.2422 1.271,-4.5118 0.301,-2.2968 0.479,-5.7421 0.533,-10.3359 L 171.647,5 h 26.783 v 58.81641 h -12.305 v -48.3574 h -3.117 l -0.287,21.8203 c -0.082,5.5508 -0.342,10.0488 -0.78,13.4941 -0.41,3.418 -1.134,6.1524 -2.173,8.2032 -1.012,2.0234 -2.243,3.4043 -3.692,4.1425 -1.449,0.7383 -3.363,1.1075 -5.742,1.1075 -1.641,0 -3.131,-0.1914 -4.471,-0.5743 z M 200.522,63.81641 206.674,5 h 19.031 l 6.973,58.81641 H 219.84 l -1.067,-12.9609 h -4.839 l -0.862,12.9609 z m 15.626,-48.3984 -1.64,25.1836 h 3.609 z"
            fill="#191919"
            id="path1"/>
    <mask
            id="path-2-outside-1_101_59645"
            maskUnits="userSpaceOnUse"
            x="269"
            y="55"
            width="212"
            height="118"
            fill="#000000">
        <rect
                fill="#ffffff"
                x="269"
                y="55"
                width="212"
                height="118"
                id="rect1"/>
        <path
                d="m 314.647,137.199 c -0.29,1.163 -0.944,2.144 -1.962,2.943 -0.944,0.799 -2.034,1.199 -3.27,1.199 -1.526,0 -2.834,-0.545 -3.924,-1.635 -1.017,-1.017 -1.526,-2.289 -1.526,-3.815 0,-0.291 0.073,-0.727 0.218,-1.308 l 9.701,-36.624 -31.174,36.624 c -0.436,0.872 -1.126,1.599 -2.071,2.18 -0.872,0.581 -1.816,0.872 -2.834,0.872 -1.526,0 -2.797,-0.545 -3.815,-1.635 -1.09,-1.09 -1.635,-2.362 -1.635,-3.815 0,-0.363 0.073,-0.836 0.218,-1.417 l 14.061,-50.794 c 0.291,-1.09 0.909,-2.0347 1.853,-2.834 1.018,-0.7993 2.144,-1.199 3.379,-1.199 1.526,0 2.798,0.545 3.815,1.635 1.09,1.09 1.635,2.3617 1.635,3.815 0,0.3633 -0.072,0.8357 -0.218,1.417 l -7.63,27.468 30.847,-36.188 c 0.436,-0.872 1.09,-1.5623 1.962,-2.071 0.872,-0.5813 1.817,-0.872 2.834,-0.872 1.526,0 2.798,0.545 3.815,1.635 1.09,1.0173 1.635,2.289 1.635,3.815 0,0.2907 -0.072,0.7267 -0.218,1.308 z m 55.697,-65.073 c 1.453,-0.1453 2.725,0.327 3.815,1.417 1.163,1.0173 1.744,2.2527 1.744,3.706 0,1.308 -0.472,2.4707 -1.417,3.488 -0.872,1.0173 -1.962,1.5623 -3.27,1.635 l -20.056,1.744 -16.023,57.225 c -0.363,1.235 -1.017,2.216 -1.962,2.943 -0.945,0.727 -2.035,1.09 -3.27,1.09 -1.526,0 -2.798,-0.581 -3.815,-1.744 -1.09,-1.09 -1.635,-2.362 -1.635,-3.815 0,-0.291 0.073,-0.727 0.218,-1.308 l 14.933,-53.41 c -1.308,-0.218 -2.398,-0.7993 -3.27,-1.744 -0.799,-0.9447 -1.199,-2.071 -1.199,-3.379 0,-1.308 0.436,-2.4707 1.308,-3.488 0.945,-1.0173 2.071,-1.5623 3.379,-1.635 z m -2.837,93.413 c -0.29,1.163 -0.944,2.144 -1.962,2.943 -0.944,0.799 -2.034,1.199 -3.27,1.199 -1.526,0 -2.797,-0.545 -3.815,-1.635 -1.09,-1.017 -1.635,-2.289 -1.635,-3.815 0,-0.291 0.073,-0.727 0.218,-1.308 L 384.402,62.534 c 0.291,-1.1627 0.909,-2.1437 1.853,-2.943 1.018,-0.7993 2.144,-1.199 3.379,-1.199 1.526,0 2.798,0.545 3.815,1.635 1.09,1.0173 1.635,2.289 1.635,3.815 0,0.2907 -0.072,0.7267 -0.218,1.308 l -4.251,15.696 c 3.924,-4.5053 8.103,-6.758 12.535,-6.758 3.924,0 7.049,1.5623 9.374,4.687 2.326,3.1247 3.488,7.1577 3.488,12.099 0,6.0313 -1.744,12.317 -5.232,18.857 -3.488,6.467 -8.393,12.426 -14.715,17.876 -6.322,5.377 -13.516,9.519 -21.582,12.426 z m 10.464,-38.368 c 5.378,-2.834 10.101,-6.322 14.17,-10.464 4.142,-4.142 7.34,-8.466 9.592,-12.971 2.253,-4.578 3.379,-8.8653 3.379,-12.862 0,-4.36 -1.017,-6.54 -3.052,-6.54 -2.252,0 -5.159,2.5797 -8.72,7.739 -3.56,5.0867 -7.23,11.481 -11.009,19.184 z m 87.464,7.521 c -0.29,1.163 -0.944,2.144 -1.962,2.943 -0.944,0.799 -2.034,1.199 -3.27,1.199 -1.526,0 -2.834,-0.545 -3.924,-1.635 -1.017,-1.017 -1.526,-2.289 -1.526,-3.815 0,-0.291 0.073,-0.727 0.218,-1.308 l 8.393,-31.937 c -5.958,3.052 -12.753,5.014 -20.383,5.886 2.544,1.671 4.469,3.561 5.777,5.668 1.381,2.107 2.071,4.651 2.071,7.63 0,3.343 -1.562,6.903 -4.687,10.682 -3.124,3.779 -6.794,6.976 -11.009,9.592 -4.142,2.616 -7.484,3.924 -10.028,3.924 -3.996,0 -6.721,-1.199 -8.175,-3.597 -1.38,-2.325 -1.925,-6.358 -1.635,-12.099 0.073,-2.18 0.763,-5.741 2.071,-10.682 1.308,-4.941 3.234,-11.808 5.777,-20.601 2.108,-6.9033 3.852,-13.08 5.232,-18.53 0.291,-1.1627 0.909,-2.1437 1.853,-2.943 1.018,-0.7993 2.144,-1.199 3.379,-1.199 1.526,0 2.798,0.545 3.815,1.635 1.09,1.0173 1.635,2.289 1.635,3.815 0,0.2907 -0.072,0.7267 -0.218,1.308 l -4.905,17.658 c 13.298,-0.7267 24.598,-5.2683 33.899,-13.625 0.509,-0.7993 1.127,-1.417 1.853,-1.853 0.8,-0.436 1.672,-0.654 2.616,-0.654 1.526,0 2.798,0.545 3.815,1.635 1.09,1.0173 1.635,2.289 1.635,3.815 0,0.2907 -0.072,0.7267 -0.218,1.308 z m -39.567,-1.635 c 1.236,-0.581 2.98,-1.78 5.232,-3.597 2.326,-1.817 4.36,-3.67 6.104,-5.559 1.817,-1.889 2.725,-3.415 2.725,-4.578 0,-1.962 -0.763,-3.742 -2.289,-5.341 -1.453,-1.599 -3.742,-3.197 -6.867,-4.796 -2.979,10.464 -4.505,16.822 -4.578,19.075 -0.072,2.471 -0.181,4.069 -0.327,4.796 z"
                id="path2"/>
    </mask>
    <path
            d="m 56.44,136.01541 c -0.29,1.163 -0.944,2.144 -1.962,2.943 -0.944,0.799 -2.034,1.199 -3.27,1.199 -1.526,0 -2.834,-0.545 -3.924,-1.635 -1.017,-1.017 -1.526,-2.289 -1.526,-3.815 0,-0.291 0.073,-0.727 0.218,-1.308 l 9.701,-36.624 -31.174,36.624 c -0.436,0.872 -1.126,1.599 -2.071,2.18 -0.872,0.581 -1.816,0.872 -2.834,0.872 -1.526,0 -2.797,-0.545 -3.815,-1.635 -1.09,-1.09 -1.635,-2.362 -1.635,-3.815 0,-0.363 0.073,-0.836 0.218,-1.417 l 14.061,-50.794 c 0.291,-1.09 0.909,-2.0347 1.853,-2.834 1.018,-0.7993 2.144,-1.199 3.379,-1.199 1.526,0 2.798,0.545 3.815,1.635 1.09,1.09 1.635,2.3617 1.635,3.815 0,0.3633 -0.072,0.8357 -0.218,1.417 l -7.63,27.468 30.847,-36.188 c 0.436,-0.872 1.09,-1.5623 1.962,-2.071 0.872,-0.5813 1.817,-0.872 2.834,-0.872 1.526,0 2.798,0.545 3.815,1.635 1.09,1.0173 1.635,2.289 1.635,3.815 0,0.2907 -0.072,0.7267 -0.218,1.308 z m 55.697,-65.073 c 1.453,-0.1453 2.725,0.327 3.815,1.417 1.163,1.0173 1.744,2.2527 1.744,3.706 0,1.308 -0.472,2.4707 -1.417,3.488 -0.872,1.0173 -1.962,1.5623 -3.27,1.635 l -20.056,1.744 -16.023,57.225 c -0.363,1.235 -1.017,2.216 -1.962,2.943 -0.945,0.727 -2.035,1.09 -3.27,1.09 -1.526,0 -2.798,-0.581 -3.815,-1.744 -1.09,-1.09 -1.635,-2.362 -1.635,-3.815 0,-0.291 0.073,-0.727 0.218,-1.308 l 14.933,-53.41 c -1.308,-0.218 -2.398,-0.7993 -3.27,-1.744 -0.799,-0.9447 -1.199,-2.071 -1.199,-3.379 0,-1.308 0.436,-2.4707 1.308,-3.488 0.945,-1.0173 2.071,-1.5623 3.379,-1.635 z m -2.837,93.413 c -0.29,1.163 -0.944,2.144 -1.962,2.943 -0.944,0.799 -2.034,1.199 -3.27,1.199 -1.526,0 -2.797,-0.545 -3.815,-1.635 -1.09,-1.017 -1.635,-2.289 -1.635,-3.815 0,-0.291 0.073,-0.727 0.218,-1.308 l 27.359,-100.389 c 0.291,-1.1627 0.909,-2.1437 1.853,-2.943 1.018,-0.7993 2.144,-1.199 3.379,-1.199 1.526,0 2.798,0.545 3.815,1.635 1.09,1.0173 1.635,2.289 1.635,3.815 0,0.2907 -0.072,0.7267 -0.218,1.308 l -4.251,15.696 c 3.924,-4.5053 8.103,-6.758 12.535,-6.758 3.924,0 7.049,1.5623 9.374,4.687 2.326,3.1247 3.488,7.1577 3.488,12.099 0,6.0313 -1.744,12.317 -5.232,18.857 -3.488,6.467 -8.393,12.426 -14.715,17.876 -6.322,5.377 -13.516,9.519 -21.582,12.426 z m 10.464,-38.368 c 5.378,-2.834 10.101,-6.322 14.17,-10.464 4.142,-4.142 7.34,-8.466 9.592,-12.971 2.253,-4.578 3.379,-8.8653 3.379,-12.862 0,-4.36 -1.017,-6.54 -3.052,-6.54 -2.252,0 -5.159,2.5797 -8.72,7.739 -3.56,5.0867 -7.23,11.481 -11.009,19.184 z m 87.464,7.521 c -0.29,1.163 -0.944,2.144 -1.962,2.943 -0.944,0.799 -2.034,1.199 -3.27,1.199 -1.526,0 -2.834,-0.545 -3.924,-1.635 -1.017,-1.017 -1.526,-2.289 -1.526,-3.815 0,-0.291 0.073,-0.727 0.218,-1.308 l 8.393,-31.937 c -5.958,3.052 -12.753,5.014 -20.383,5.886 2.544,1.671 4.469,3.561 5.777,5.668 1.381,2.107 2.071,4.651 2.071,7.63 0,3.343 -1.562,6.903 -4.687,10.682 -3.124,3.779 -6.794,6.976 -11.009,9.592 -4.142,2.616 -7.484,3.924 -10.028,3.924 -3.996,0 -6.721,-1.199 -8.175,-3.597 -1.38,-2.325 -1.925,-6.358 -1.635,-12.099 0.073,-2.18 0.763,-5.741 2.071,-10.682 1.308,-4.941 3.234,-11.808 5.777,-20.601 2.108,-6.9033 3.852,-13.08 5.232,-18.53 0.291,-1.1627 0.909,-2.1437 1.853,-2.943 1.018,-0.7993 2.144,-1.199 3.379,-1.199 1.526,0 2.798,0.545 3.815,1.635 1.09,1.0173 1.635,2.289 1.635,3.815 0,0.2907 -0.072,0.7267 -0.218,1.308 l -4.905,17.658 c 13.298,-0.7267 24.598,-5.2683 33.899,-13.625 0.509,-0.7993 1.127,-1.417 1.853,-1.853 0.8,-0.436 1.672,-0.654 2.616,-0.654 1.526,0 2.798,0.545 3.815,1.635 1.09,1.0173 1.635,2.289 1.635,3.815 0,0.2907 -0.072,0.7267 -0.218,1.308 z m -39.567,-1.635 c 1.236,-0.581 2.98,-1.78 5.232,-3.597 2.326,-1.817 4.36,-3.67 6.104,-5.559 1.817,-1.889 2.725,-3.415 2.725,-4.578 0,-1.962 -0.763,-3.742 -2.289,-5.341 -1.453,-1.599 -3.742,-3.197 -6.867,-4.796 -2.979,10.464 -4.505,16.822 -4.578,19.075 -0.072,2.471 -0.181,4.069 -0.327,4.796 z"
            fill="#ffffff"
            id="path3"/>
    <path
            d="m 314.647,137.199 -2.996,-0.793 c -0.004,0.014 -0.008,0.027 -0.011,0.041 z m -1.962,2.943 -1.915,-2.438 c -0.029,0.024 -0.058,0.047 -0.087,0.072 z m -7.194,-0.436 -2.192,2.192 v 0 z m -1.308,-5.123 -2.996,-0.794 c -0.004,0.014 -0.007,0.028 -0.011,0.042 z m 9.701,-36.624 2.997,0.7938 c 0.371,-1.3996 -0.277,-2.8693 -1.559,-3.5405 -1.283,-0.6712 -2.86,-0.3651 -3.798,0.7374 z m -31.174,36.624 -2.36,-2.009 c -0.162,0.19 -0.3,0.399 -0.412,0.623 z m -2.071,2.18 -1.624,-2.64 c -0.032,0.02 -0.064,0.04 -0.095,0.061 z M 273.99,136 l 2.267,-2.115 c -0.025,-0.026 -0.049,-0.052 -0.074,-0.077 z m -1.417,-5.232 -2.987,-0.827 c -0.007,0.025 -0.014,0.05 -0.02,0.075 z m 14.061,-50.794 2.988,0.8271 c 0.003,-0.0095 0.005,-0.0189 0.008,-0.0283 z m 1.853,-2.834 -1.915,-2.4376 c -0.029,0.0232 -0.058,0.0469 -0.087,0.0711 z m 7.194,0.436 -2.266,2.1152 c 0.025,0.026 0.049,0.0516 0.074,0.0768 z m 1.417,5.232 2.987,0.8297 c 0.008,-0.0259 0.014,-0.0518 0.021,-0.0778 z m -7.63,27.468 -2.986,-0.83 c -0.39,1.402 0.248,2.885 1.532,3.568 1.284,0.682 2.87,0.38 3.814,-0.727 z m 30.847,-36.188 2.36,2.011 c 0.162,-0.1907 0.301,-0.4005 0.413,-0.6246 z m 1.962,-2.071 1.562,2.6777 c 0.054,-0.0312 0.107,-0.064 0.158,-0.0983 z m 6.649,0.763 -2.266,2.1152 c 0.049,0.0521 0.099,0.1025 0.151,0.1511 z m 1.417,5.123 2.997,0.7933 c 0.004,-0.0138 0.007,-0.0276 0.011,-0.0414 z m -15.696,59.296 -3.007,-0.752 c -0.11,0.441 -0.348,0.847 -0.87,1.257 l 1.915,2.438 1.916,2.438 c 1.512,-1.189 2.583,-2.744 3.054,-4.629 z m -1.962,2.943 -2.002,-2.366 c -0.386,0.326 -0.767,0.465 -1.268,0.465 v 3.1 3.1 c 1.97,0 3.77,-0.66 5.273,-1.933 z m -3.27,1.199 v -3.1 c -0.694,0 -1.216,-0.212 -1.731,-0.727 l -2.193,2.192 -2.192,2.192 c 1.665,1.665 3.759,2.543 6.116,2.543 z m -3.924,-1.635 2.193,-2.192 c -0.398,-0.398 -0.619,-0.864 -0.619,-1.623 h -3.1 -3.1 c 0,2.293 0.798,4.37 2.434,6.007 z m -1.526,-3.815 h 3.1 c 0,0.089 -0.008,0.091 0.013,-0.035 0.019,-0.114 0.054,-0.284 0.113,-0.521 l -3.008,-0.752 -3.007,-0.752 c -0.156,0.625 -0.311,1.369 -0.311,2.06 z m 0.218,-1.308 2.997,0.794 9.701,-36.6242 -2.997,-0.7938 -2.996,-0.7938 -9.701,36.6238 z m 9.701,-36.624 -2.36,-2.0093 -31.174,36.6243 2.36,2.009 2.361,2.009 31.174,-36.6237 z m -31.174,36.624 -2.772,-1.386 c -0.144,0.287 -0.401,0.605 -0.923,0.926 l 1.624,2.64 1.625,2.64 c 1.367,-0.841 2.491,-1.977 3.219,-3.434 z m -2.071,2.18 -1.719,-2.579 c -0.379,0.252 -0.728,0.351 -1.115,0.351 v 3.1 3.1 c 1.649,0 3.189,-0.483 4.554,-1.393 z m -2.834,0.872 v -3.1 c -0.689,0 -1.133,-0.205 -1.548,-0.65 l -2.267,2.115 -2.266,2.115 c 1.619,1.735 3.719,2.62 6.081,2.62 z M 273.99,136 l 2.193,-2.192 c -0.548,-0.548 -0.728,-1.046 -0.728,-1.623 h -3.1 -3.1 c 0,2.329 0.911,4.375 2.543,6.007 z m -1.635,-3.815 h 3.1 c 0,0.016 0,-0.03 0.019,-0.155 0.019,-0.122 0.052,-0.29 0.107,-0.51 l -3.008,-0.752 -3.007,-0.752 c -0.173,0.691 -0.311,1.442 -0.311,2.169 z m 0.218,-1.417 2.988,0.827 14.061,-50.7939 -2.988,-0.8271 -2.987,-0.8271 -14.061,50.7941 z m 14.061,-50.794 2.996,0.7988 c 0.112,-0.419 0.349,-0.8344 0.86,-1.2663 l -2.003,-2.3665 -2.002,-2.3665 c -1.379,1.1667 -2.376,2.6407 -2.846,4.4017 z m 1.853,-2.834 1.916,2.4376 c 0.499,-0.3921 0.957,-0.5366 1.463,-0.5366 v -3.1 -3.1 c -1.964,0 -3.758,0.6548 -5.294,1.8614 z m 3.379,-1.199 v 3.1 c 0.69,0 1.134,0.2049 1.549,0.6502 l 2.266,-2.1152 2.267,-2.1152 c -1.619,-1.7347 -3.719,-2.6198 -6.082,-2.6198 z m 3.815,1.635 -2.192,2.192 c 0.548,0.5478 0.727,1.0456 0.727,1.623 h 3.1 3.1 c 0,-2.3293 -0.91,-4.3748 -2.542,-6.007 z m 1.635,3.815 h -3.1 c 0,-0.0164 10e-4,0.0296 -0.018,0.1554 -0.019,0.1217 -0.052,0.2896 -0.107,0.5097 l 3.007,0.7519 3.008,0.7519 c 0.173,-0.6905 0.31,-1.4419 0.31,-2.1689 z m -0.218,1.417 -2.986,-0.8297 -7.63,27.4677 2.986,0.83 2.987,0.83 7.63,-27.4683 z m -7.63,27.468 2.36,2.011 30.847,-36.188 -2.36,-2.011 -2.359,-2.011 -30.847,36.188 z m 30.847,-36.188 2.773,1.3864 c 0.157,-0.3132 0.38,-0.5633 0.751,-0.7797 l -1.562,-2.6777 -1.562,-2.6777 c -1.373,0.8009 -2.457,1.9315 -3.172,3.3623 z m 1.962,-2.071 1.72,2.5794 c 0.379,-0.2527 0.728,-0.3514 1.114,-0.3514 v -3.1 -3.1 c -1.648,0 -3.188,0.4827 -4.553,1.3926 z m 2.834,-0.872 v 3.1 c 0.69,0 1.134,0.2049 1.549,0.6502 l 2.266,-2.1152 2.267,-2.1152 c -1.619,-1.7347 -3.719,-2.6198 -6.082,-2.6198 z m 3.815,1.635 -2.115,2.2663 c 0.446,0.4156 0.65,0.8591 0.65,1.5487 h 3.1 3.1 c 0,-2.3624 -0.885,-4.4622 -2.619,-6.0813 z m 1.635,3.815 h -3.1 c 0,-0.089 0.009,-0.0914 -0.012,0.0354 -0.019,0.1138 -0.054,0.2841 -0.113,0.5207 l 3.007,0.7519 3.008,0.7519 c 0.156,-0.6251 0.31,-1.369 0.31,-2.0599 z m -0.218,1.308 -2.996,-0.7933 -15.696,59.2963 2.996,0.793 2.997,0.793 15.696,-59.2957 z m 40.001,-5.777 0.276,3.0877 c 0.011,-0.001 0.021,-0.002 0.032,-0.0031 z m 3.815,1.417 -2.192,2.192 c 0.049,0.0487 0.099,0.0957 0.151,0.141 z m 0.327,7.194 -2.272,-2.1094 c -0.028,0.0301 -0.055,0.0608 -0.082,0.0919 z m -3.27,1.635 -0.172,-3.0952 c -0.032,0.0018 -0.064,0.0041 -0.097,0.0069 z m -20.056,1.744 -0.269,-3.0883 c -1.286,0.1118 -2.368,1.0092 -2.716,2.2524 z m -16.023,57.225 2.974,0.875 c 0.004,-0.013 0.007,-0.026 0.011,-0.039 z m -1.962,2.943 1.89,2.457 v 0 z m -7.085,-0.654 2.333,-2.041 c -0.045,-0.052 -0.092,-0.102 -0.141,-0.151 z m -1.417,-5.123 -2.986,-0.835 c -0.007,0.028 -0.015,0.055 -0.022,0.083 z m 14.933,-53.41 2.985,0.8347 c 0.237,-0.8475 0.103,-1.7559 -0.369,-2.4984 -0.473,-0.7426 -1.238,-1.2494 -2.106,-1.3941 z m -3.27,-1.744 -2.367,2.0024 c 0.029,0.0341 0.059,0.0675 0.089,0.1003 z m 0.109,-6.867 -2.272,-2.1094 c -0.028,0.0301 -0.055,0.0608 -0.082,0.0919 z m 3.379,-1.635 0.172,3.0952 c 0.035,-0.0019 0.069,-0.0044 0.104,-0.0075 z m 30.52,-2.725 0.308,3.0846 c 0.471,-0.0471 0.84,0.05 1.315,0.5244 l 2.192,-2.192 2.192,-2.192 c -1.706,-1.7056 -3.88,-2.5532 -6.316,-2.3096 z m 3.815,1.417 -2.041,2.333 c 0.538,0.4707 0.685,0.8755 0.685,1.373 h 3.1 3.1 c 0,-2.4092 -1.015,-4.4751 -2.803,-6.039 z m 1.744,3.706 h -3.1 c 0,0.4744 -0.141,0.896 -0.589,1.3786 l 2.272,2.1094 2.272,2.1094 c 1.441,-1.5521 2.245,-3.4558 2.245,-5.5974 z m -1.417,3.488 -2.354,-2.0175 c -0.336,0.3923 -0.645,0.5327 -1.088,0.5573 l 0.172,3.0952 0.172,3.0952 c 2.173,-0.1207 4.044,-1.0703 5.452,-2.7128 z m -3.27,1.635 -0.269,-3.0883 -20.056,1.744 0.269,3.0883 0.268,3.0883 20.056,-1.744 z m -20.056,1.744 -2.985,-0.8359 -16.023,57.2249 2.985,0.836 2.985,0.836 16.023,-57.2251 z m -16.023,57.225 -2.974,-0.875 c -0.194,0.66 -0.496,1.067 -0.878,1.361 l 1.89,2.457 1.89,2.457 c 1.507,-1.159 2.513,-2.715 3.046,-4.525 z m -1.962,2.943 -1.89,-2.457 c -0.382,0.294 -0.802,0.447 -1.38,0.447 v 3.1 3.1 c 1.892,0 3.653,-0.573 5.16,-1.733 z m -3.27,1.09 v -3.1 c -0.62,0 -1.045,-0.186 -1.482,-0.685 l -2.333,2.041 -2.333,2.041 c 1.598,1.826 3.715,2.803 6.148,2.803 z m -3.815,-1.744 2.192,-2.192 c -0.548,-0.548 -0.727,-1.046 -0.727,-1.623 h -3.1 -3.1 c 0,2.329 0.911,4.375 2.543,6.007 z m -1.635,-3.815 h 3.1 c 0,0.089 -0.009,0.091 0.012,-0.035 0.019,-0.114 0.054,-0.284 0.113,-0.521 l -3.007,-0.752 -3.008,-0.752 c -0.156,0.625 -0.31,1.369 -0.31,2.06 z m 0.218,-1.308 2.985,0.835 14.933,-53.4103 -2.985,-0.8347 -2.986,-0.8347 -14.933,53.4097 z m 14.933,-53.41 0.51,-3.0578 c -0.652,-0.1087 -1.113,-0.367 -1.502,-0.7889 l -2.278,2.1027 -2.278,2.1027 c 1.355,1.4674 3.074,2.3718 5.038,2.6991 z m -3.27,-1.744 2.366,-2.0024 c -0.297,-0.3513 -0.465,-0.7565 -0.465,-1.3766 h -3.1 -3.1 c 0,1.9959 0.631,3.8434 1.932,5.3814 z m -1.199,-3.379 h 3.1 c 0,-0.5485 0.158,-1.0001 0.562,-1.4705 l -2.354,-2.0175 -2.354,-2.0175 c -1.341,1.5642 -2.054,3.438 -2.054,5.5055 z m 1.308,-3.488 2.272,2.1094 c 0.434,-0.4682 0.823,-0.6239 1.279,-0.6492 l -0.172,-3.0952 -0.172,-3.0952 c -2.16,0.12 -4.024,1.0543 -5.479,2.6208 z m 3.379,-1.635 0.276,3.0877 30.52,-2.725 -0.276,-3.0877 -0.276,-3.0877 -30.52,2.725 z m 27.683,90.688 -2.99,-0.818 c -0.006,0.022 -0.012,0.044 -0.017,0.066 z m -1.962,2.943 -1.915,-2.438 c -0.029,0.024 -0.058,0.047 -0.087,0.072 z m -7.085,-0.436 2.267,-2.115 c -0.049,-0.052 -0.099,-0.103 -0.151,-0.151 z m -1.417,-5.123 -2.991,-0.815 c -0.005,0.021 -0.011,0.042 -0.016,0.063 z m 27.359,-100.389 2.991,0.8151 c 0.006,-0.021 0.012,-0.0421 0.017,-0.0632 z m 1.853,-2.943 -1.915,-2.4376 c -0.029,0.0232 -0.058,0.0469 -0.087,0.0711 z m 7.194,0.436 -2.266,2.1152 c 0.049,0.0521 0.099,0.1025 0.151,0.1511 z m 1.417,5.123 2.993,0.8104 c 0.005,-0.0195 0.01,-0.039 0.015,-0.0585 z m -4.251,15.696 -2.992,-0.8104 c -0.377,1.3942 0.258,2.8644 1.532,3.5449 1.274,0.6804 2.849,0.3907 3.798,-0.6985 z m 21.909,-2.071 2.487,-1.8507 v 0 z m -1.744,30.956 2.729,1.472 c 0.002,-0.005 0.004,-0.009 0.007,-0.013 z m -14.715,17.876 2.009,2.361 c 0.005,-0.004 0.01,-0.009 0.015,-0.013 z m -21.582,12.426 -1.051,-2.916 c -0.949,0.342 -1.673,1.125 -1.939,2.098 z m 3.488,-12.862 -2.989,-0.819 c -0.327,1.191 0.085,2.463 1.048,3.236 0.963,0.774 2.294,0.901 3.387,0.325 z m 14.17,-10.464 -2.192,-2.192 c -0.006,0.006 -0.013,0.013 -0.019,0.019 z m 9.592,-12.971 2.773,1.386 c 0.003,-0.006 0.006,-0.011 0.009,-0.017 z m -8.393,-11.663 2.54,1.7777 c 0.004,-0.0056 0.008,-0.0112 0.012,-0.0169 z m -11.009,19.184 -2.783,-1.365 c -0.086,0.175 -0.155,0.358 -0.206,0.546 z m -14.824,54.282 -3.007,-0.752 c -0.11,0.441 -0.348,0.847 -0.87,1.257 l 1.915,2.438 1.916,2.438 c 1.512,-1.189 2.583,-2.744 3.054,-4.629 z m -1.962,2.943 -2.002,-2.366 c -0.386,0.326 -0.767,0.465 -1.268,0.465 v 3.1 3.1 c 1.97,0 3.769,-0.66 5.273,-1.933 z m -3.27,1.199 v -3.1 c -0.689,0 -1.133,-0.205 -1.548,-0.65 l -2.267,2.115 -2.266,2.115 c 1.619,1.735 3.719,2.62 6.081,2.62 z m -3.815,-1.635 2.116,-2.266 c -0.446,-0.416 -0.651,-0.859 -0.651,-1.549 h -3.1 -3.1 c 0,2.362 0.885,4.462 2.62,6.081 z m -1.635,-3.815 h 3.1 c 0,0.089 -0.008,0.091 0.013,-0.035 0.019,-0.114 0.054,-0.284 0.113,-0.521 l -3.008,-0.752 -3.007,-0.752 c -0.156,0.625 -0.311,1.369 -0.311,2.06 z m 0.218,-1.308 2.991,0.815 27.359,-100.3889 -2.991,-0.8151 -2.991,-0.8151 -27.359,100.3891 z m 27.359,-100.389 3.008,0.7519 c 0.128,-0.5109 0.382,-0.9341 0.848,-1.3284 l -2.003,-2.3665 -2.002,-2.3665 c -1.423,1.2043 -2.404,2.7432 -2.858,4.5576 z m 1.853,-2.943 1.916,2.4376 c 0.499,-0.3921 0.957,-0.5366 1.463,-0.5366 v -3.1 -3.1 c -1.964,0 -3.758,0.6548 -5.294,1.8614 z m 3.379,-1.199 v 3.1 c 0.69,0 1.133,0.2049 1.549,0.6502 l 2.266,-2.1152 2.267,-2.1152 c -1.619,-1.7347 -3.719,-2.6198 -6.082,-2.6198 z m 3.815,1.635 -2.115,2.2663 c 0.445,0.4156 0.65,0.8591 0.65,1.5487 h 3.1 3.1 c 0,-2.3624 -0.885,-4.4622 -2.619,-6.0813 z m 1.635,3.815 h -3.1 c 0,-0.089 0.009,-0.0914 -0.012,0.0354 -0.019,0.1138 -0.054,0.2841 -0.113,0.5207 l 3.007,0.7519 3.008,0.7519 c 0.156,-0.6251 0.31,-1.3689 0.31,-2.0599 z m -0.218,1.308 -2.992,-0.8104 -4.251,15.696 2.992,0.8104 2.993,0.8104 4.251,-15.696 z m -4.251,15.696 2.338,2.036 c 3.551,-4.0768 6.944,-5.694 10.197,-5.694 v -3.1 -3.1 c -5.612,0 -10.575,2.8881 -14.872,7.822 z m 12.535,-6.758 v 3.1 c 2.953,0 5.152,1.106 6.887,3.4377 l 2.487,-1.8507 2.487,-1.8507 C 412.096,73.0066 408.046,70.988 403.15,70.988 Z m 9.374,4.687 -2.487,1.8507 c 1.832,2.461 2.875,5.793 2.875,10.2483 h 3.1 3.1 c 0,-5.4274 -1.281,-10.1613 -4.101,-13.9497 z m 3.488,12.099 h -3.1 c 0,5.4188 -1.564,11.206 -4.867,17.398 l 2.735,1.459 2.736,1.459 c 3.673,-6.888 5.596,-13.6721 5.596,-20.316 z m -5.232,18.857 -2.728,-1.472 c -3.286,6.093 -7.936,11.764 -14.011,17 l 2.024,2.348 2.024,2.348 c 6.57,-5.664 11.73,-11.91 15.42,-18.752 z m -14.715,17.876 -2.008,-2.361 c -6.029,5.128 -12.897,9.086 -20.625,11.871 l 1.051,2.916 1.051,2.916 c 8.404,-3.028 15.925,-7.354 22.54,-12.981 z m -21.582,12.426 -2.99,-0.818 -6.976,25.506 2.99,0.818 2.991,0.818 6.976,-25.506 z m 3.488,-12.862 1.446,2.742 c 5.647,-2.976 10.632,-6.653 14.936,-11.033 l -2.212,-2.173 -2.211,-2.173 c -3.835,3.904 -8.297,7.203 -13.404,9.895 z m 14.17,-10.464 2.192,2.192 c 4.34,-4.34 7.749,-8.929 10.173,-13.777 l -2.773,-1.386 -2.772,-1.386 c -2.082,4.163 -5.068,8.221 -9.012,12.165 z m 9.592,-12.971 2.782,1.369 c 2.406,-4.89 3.697,-9.6471 3.697,-14.231 h -3.1 -3.1 c 0,3.4094 -0.961,7.227 -3.06,11.493 z m 3.379,-12.862 h 3.1 c 0,-2.3232 -0.255,-4.5055 -1.053,-6.2159 -0.418,-0.8951 -1.039,-1.7792 -1.962,-2.4379 -0.952,-0.6803 -2.04,-0.9862 -3.137,-0.9862 v 3.1 3.1 c -0.079,0 -0.277,-0.0334 -0.466,-0.1687 -0.159,-0.1137 -0.145,-0.1803 -0.054,0.0146 0.219,0.4696 0.472,1.5573 0.472,3.5941 z m -3.052,-6.54 v -3.1 c -2.27,0 -4.283,1.2572 -5.927,2.7162 -1.718,1.5244 -3.497,3.6859 -5.344,6.362 l 2.551,1.7608 2.552,1.7608 c 1.714,-2.4832 3.168,-4.1913 4.357,-5.2465 1.262,-1.1206 1.829,-1.1533 1.811,-1.1533 z m -8.72,7.739 -2.539,-1.7777 c -3.68,5.2564 -7.428,11.7997 -11.253,19.5967 l 2.783,1.365 2.784,1.365 c 3.732,-7.609 7.323,-13.8544 10.765,-18.7713 z m -11.009,19.184 -2.989,-0.819 -4.36,15.914 2.989,0.819 2.99,0.819 4.36,-15.914 z m 83.104,23.435 -2.997,-0.792 c -0.003,0.013 -0.007,0.027 -0.01,0.04 z m -1.962,2.943 -1.915,-2.438 c -0.029,0.024 -0.058,0.047 -0.087,0.072 z m -7.194,-0.436 2.192,-2.192 v 0 z m -1.308,-5.123 -2.998,-0.788 c -0.003,0.012 -0.006,0.024 -0.009,0.036 z m 8.393,-31.937 2.999,0.788 c 0.31,-1.1828 -0.103,-2.4376 -1.056,-3.2039 -0.953,-0.7663 -2.267,-0.9007 -3.356,-0.3432 z m -20.383,5.886 -0.352,-3.08 c -1.296,0.148 -2.361,1.092 -2.663,2.362 -0.303,1.269 0.222,2.592 1.313,3.309 z m 5.777,5.668 -2.634,1.635 c 0.014,0.021 0.027,0.043 0.041,0.064 z m -2.616,18.312 2.389,1.976 v 0 z m -11.009,9.592 -1.634,-2.634 c -0.007,0.004 -0.014,0.009 -0.021,0.013 z m -18.203,0.327 -2.665,1.583 c 0.005,0.008 0.009,0.016 0.014,0.024 z m -1.635,-12.099 3.096,0.157 c 10e-4,-0.018 0.002,-0.036 0.003,-0.054 z m 2.071,-10.682 -2.996,-0.793 z m 5.777,-20.601 -2.965,-0.9051 c -0.004,0.0145 -0.008,0.0291 -0.013,0.0437 z m 5.232,-18.53 3.005,0.7613 0.003,-0.0094 z m 1.853,-2.943 -1.915,-2.4376 c -0.029,0.0232 -0.058,0.0469 -0.087,0.0711 z m 7.194,0.436 -2.266,2.1152 c 0.049,0.0521 0.099,0.1025 0.151,0.1511 z m 1.417,5.123 2.987,0.8297 c 0.007,-0.0259 0.014,-0.0518 0.021,-0.0778 z m -4.905,17.658 -2.987,-0.8297 c -0.267,0.9621 -0.054,1.9941 0.571,2.7727 0.626,0.778 1.588,1.207 2.586,1.152 z m 33.899,-13.625 2.072,2.306 c 0.21,-0.1882 0.393,-0.4041 0.544,-0.6417 z m 1.853,-1.853 -1.484,-2.7215 c -0.037,0.0203 -0.074,0.0414 -0.111,0.0633 z m 6.431,0.981 -2.266,2.1152 c 0.049,0.0521 0.099,0.1025 0.151,0.1511 z m 1.417,5.123 2.997,0.7921 c 0.004,-0.0134 0.007,-0.0268 0.011,-0.0403 z m -51.666,44.145 -3.039,-0.608 c -0.23,1.148 0.207,2.327 1.128,3.049 0.922,0.722 2.172,0.862 3.231,0.364 z m 5.232,-3.597 -1.908,-2.443 c -0.013,0.01 -0.025,0.02 -0.038,0.03 z m 6.104,-5.559 -2.234,-2.149 c -0.015,0.016 -0.029,0.031 -0.044,0.046 z m 0.436,-9.919 -2.293,2.085 c 0.016,0.019 0.034,0.037 0.051,0.055 z m -6.867,-4.796 1.412,-2.76 c -0.826,-0.422 -1.797,-0.453 -2.648,-0.083 -0.851,0.37 -1.491,1.102 -1.745,1.994 z m -4.578,19.075 -3.098,-0.1 v 0.009 z m 39.24,6.431 -3.007,-0.752 c -0.11,0.441 -0.348,0.847 -0.87,1.257 l 1.915,2.438 1.916,2.438 c 1.512,-1.189 2.583,-2.744 3.054,-4.629 z m -1.962,2.943 -2.002,-2.366 c -0.386,0.326 -0.767,0.465 -1.268,0.465 v 3.1 3.1 c 1.97,0 3.769,-0.66 5.273,-1.933 z m -3.27,1.199 v -3.1 c -0.694,0 -1.216,-0.212 -1.732,-0.727 l -2.192,2.192 -2.192,2.192 c 1.665,1.665 3.759,2.543 6.116,2.543 z m -3.924,-1.635 2.192,-2.192 c -0.398,-0.398 -0.618,-0.864 -0.618,-1.623 h -3.1 -3.1 c 0,2.293 0.798,4.37 2.434,6.007 z m -1.526,-3.815 h 3.1 c 0,0.089 -0.008,0.091 0.013,-0.035 0.019,-0.114 0.054,-0.284 0.113,-0.521 l -3.008,-0.752 -3.007,-0.752 c -0.156,0.625 -0.311,1.369 -0.311,2.06 z m 0.218,-1.308 2.999,0.788 8.393,-31.937 -2.999,-0.788 -2.998,-0.7879 -8.393,31.9369 z m 8.393,-31.937 -1.413,-2.7591 c -5.582,2.8591 -12.008,4.7291 -19.322,5.5651 l 0.352,3.08 0.352,3.08 c 7.947,-0.908 15.109,-2.962 21.445,-6.207 z m -20.383,5.886 -1.702,2.591 c 2.251,1.479 3.822,3.064 4.845,4.712 l 2.634,-1.635 2.634,-1.635 c -1.593,-2.566 -3.872,-4.76 -6.708,-6.624 z m 5.777,5.668 -2.593,1.699 c 0.994,1.516 1.564,3.443 1.564,5.931 h 3.1 3.1 c 0,-3.471 -0.81,-6.63 -2.578,-9.329 z m 2.071,7.63 h -3.1 c 0,2.351 -1.102,5.232 -3.976,8.706 l 2.389,1.976 2.389,1.976 c 3.376,-4.083 5.398,-8.324 5.398,-12.658 z m -4.687,10.682 -2.389,-1.976 c -2.908,3.517 -6.322,6.493 -10.254,8.934 l 1.634,2.634 1.635,2.634 c 4.497,-2.791 8.422,-6.21 11.763,-10.25 z m -11.009,9.592 -1.655,-2.621 c -4.031,2.546 -6.746,3.445 -8.373,3.445 v 3.1 3.1 c 3.46,0 7.431,-1.717 11.684,-4.403 z m -10.028,3.924 v -3.1 c -3.419,0 -4.853,-0.997 -5.524,-2.104 l -2.651,1.607 -2.651,1.607 c 2.236,3.689 6.253,5.09 10.826,5.09 z m -8.175,-3.597 2.666,-1.583 c -0.874,-1.471 -1.492,-4.678 -1.205,-10.359 l -3.096,-0.157 -3.096,-0.157 c -0.293,5.801 0.178,10.659 2.066,13.839 z m -1.635,-12.099 3.099,0.103 c 0.06,-1.796 0.663,-5.056 1.969,-9.992 l -2.997,-0.793 -2.996,-0.793 c -1.31,4.947 -2.087,8.808 -2.173,11.372 z m 2.071,-10.682 2.997,0.793 c 1.299,-4.907 3.217,-11.748 5.758,-20.5326 l -2.978,-0.8614 -2.978,-0.8614 c -2.545,8.8004 -4.478,15.6944 -5.795,20.6694 z m 5.777,-20.601 2.965,0.9051 c 2.118,-6.9384 3.877,-13.1643 5.272,-18.6738 l -3.005,-0.7613 -3.005,-0.7613 c -1.365,5.3905 -3.095,11.5179 -5.192,18.3862 z m 5.232,-18.53 3.008,0.7519 c 0.128,-0.5109 0.382,-0.9341 0.848,-1.3284 l -2.003,-2.3665 -2.002,-2.3665 c -1.423,1.2043 -2.404,2.7432 -2.858,4.5576 z m 1.853,-2.943 1.916,2.4376 c 0.499,-0.3921 0.957,-0.5366 1.463,-0.5366 v -3.1 -3.1 c -1.964,0 -3.758,0.6548 -5.294,1.8614 z m 3.379,-1.199 v 3.1 c 0.69,0 1.133,0.2049 1.549,0.6502 l 2.266,-2.1152 2.267,-2.1152 C 438.07,71.6551 435.97,70.77 433.607,70.77 Z m 3.815,1.635 -2.115,2.2663 c 0.446,0.4156 0.65,0.8591 0.65,1.5487 h 3.1 3.1 c 0,-2.3624 -0.885,-4.4622 -2.619,-6.0813 z m 1.635,3.815 h -3.1 c 0,-0.089 0.009,-0.0914 -0.012,0.0354 -0.019,0.1138 -0.054,0.2841 -0.113,0.5207 l 3.007,0.7519 3.008,0.7519 c 0.156,-0.6251 0.31,-1.3689 0.31,-2.0599 z m -0.218,1.308 -2.987,-0.8297 -4.905,17.658 2.987,0.8297 2.987,0.8297 4.905,-17.658 z m -4.905,17.658 0.17,3.095 c 13.954,-0.762 25.939,-5.553 35.801,-14.414 l -2.072,-2.306 -2.071,-2.306 c -8.74,7.8524 -19.355,12.1448 -31.997,12.8356 z m 33.899,-13.625 2.616,1.6643 c 0.281,-0.4417 0.565,-0.6986 0.832,-0.8591 l -1.595,-2.6582 -1.595,-2.6582 c -1.185,0.7115 -2.137,1.69 -2.873,2.8469 z m 1.853,-1.853 1.485,2.7215 c 0.326,-0.1781 0.685,-0.2755 1.131,-0.2755 v -3.1 -3.1 c -1.443,0 -2.828,0.3386 -4.1,1.0325 z m 2.616,-0.654 v 3.1 c 0.69,0 1.133,0.2049 1.549,0.6502 l 2.266,-2.1152 2.267,-2.1152 c -1.619,-1.7347 -3.719,-2.6198 -6.082,-2.6198 z m 3.815,1.635 -2.115,2.2663 c 0.445,0.4156 0.65,0.8591 0.65,1.5487 h 3.1 3.1 c 0,-2.3624 -0.885,-4.4622 -2.619,-6.0813 z m 1.635,3.815 h -3.1 c 0,-0.089 0.009,-0.0914 -0.012,0.0354 -0.019,0.1138 -0.054,0.2841 -0.113,0.5207 l 3.007,0.7519 3.008,0.7518 c 0.156,-0.625 0.31,-1.3689 0.31,-2.0598 z m -0.218,1.308 -2.997,-0.7921 -12.099,45.7801 2.997,0.792 2.997,0.792 12.099,-45.7799 z m -51.666,44.145 1.32,2.805 c 1.592,-0.749 3.578,-2.15 5.858,-3.989 l -1.946,-2.413 -1.946,-2.413 c -2.224,1.794 -3.727,2.792 -4.606,3.205 z m 5.232,-3.597 1.909,2.443 c 2.438,-1.905 4.6,-3.87 6.473,-5.899 l -2.278,-2.103 -2.278,-2.103 c -1.615,1.75 -3.522,3.491 -5.734,5.219 z m 6.104,-5.559 2.235,2.149 c 1.003,-1.043 1.855,-2.087 2.473,-3.125 0.601,-1.009 1.117,-2.242 1.117,-3.602 h -3.1 -3.1 c 0,-0.197 0.063,-0.086 -0.245,0.431 -0.29,0.488 -0.8,1.152 -1.614,1.998 z m 2.725,-4.578 h 3.1 c 0,-2.862 -1.145,-5.385 -3.146,-7.481 l -2.243,2.14 -2.242,2.14 c 1.051,1.101 1.431,2.139 1.431,3.201 z m -2.289,-5.341 2.294,-2.085 c -1.812,-1.994 -4.473,-3.795 -7.749,-5.471 l -1.412,2.76 -1.412,2.76 c 2.974,1.521 4.891,2.917 5.986,4.121 z m -6.867,-4.796 -2.981,-0.849 c -1.495,5.25 -2.635,9.503 -3.412,12.742 -0.752,3.134 -1.235,5.59 -1.283,7.082 l 3.098,0.1 3.099,0.1 c 0.024,-0.76 0.341,-2.611 1.115,-5.835 0.748,-3.119 1.861,-7.277 3.346,-12.491 z m -4.578,19.075 -3.098,-0.091 c -0.075,2.535 -0.184,3.857 -0.268,4.279 l 3.039,0.608 3.04,0.608 c 0.207,-1.032 0.315,-2.907 0.386,-5.313 z"
            fill="#191919"
            mask="url(#path-2-outside-1_101_59645)"
            id="path4"
            transform="translate(-258.207,-1.18359)"/>
</svg>
