<svg viewBox="0 0 234 245" fill="none" xmlns="http://www.w3.org/2000/svg">
    <path d="M4.20354 125.472C13.8202 160.61 52.1283 207.564 89.7692 230.343C111.813 243.683 128.737 245.774 137.046 238.157C137.078 238.131 137.106 238.104 137.133 238.08L171.75 206.322L42.5976 63.2324L6.84073 96.0976C1.64796 101.672 0.413673 111.618 4.20354 125.472Z"
          fill="#7F42E1" stroke="#191919" stroke-width="4" stroke-linecap="round" stroke-linejoin="round"/>
    <path d="M39.0744 93.481C48.6893 128.622 86.9991 175.573 124.64 198.353C162.281 221.132 184.998 211.113 175.383 175.972C165.768 140.831 127.458 93.88 89.8173 71.1005C52.1763 48.321 29.4577 58.3427 39.0744 93.481Z"
          fill="white" stroke="#191919" stroke-width="4" stroke-linecap="round" stroke-linejoin="round"/>
    <path d="M56.8908 104.264C63.9934 130.217 92.284 164.893 120.083 181.717C147.882 198.54 164.661 191.139 157.561 165.187C150.459 139.233 122.168 104.557 94.3688 87.7337C66.5696 70.9102 49.7911 78.3116 56.8908 104.264Z"
          fill="#7F42E1" stroke="#191919" stroke-width="4" stroke-linecap="round" stroke-linejoin="round"/>
    <path d="M74.8698 115.144C79.4342 131.825 97.6237 154.12 115.492 164.934C133.36 175.747 144.149 170.994 139.584 154.307C135.018 137.621 116.83 115.331 98.9617 104.518C81.0935 93.7041 70.3041 98.4579 74.8698 115.144Z"
          fill="white" stroke="#191919" stroke-width="4" stroke-linecap="round" stroke-linejoin="round"/>
    <path d="M91.5775 125.255C93.7864 133.324 102.585 144.107 111.228 149.337C119.87 154.568 125.088 152.267 122.88 144.199C120.671 136.13 111.872 125.347 103.23 120.117C94.5871 114.886 89.3686 117.187 91.5775 125.255Z"
          fill="#7F42E1" stroke="#191919" stroke-width="4" stroke-linecap="round" stroke-linejoin="round"/>
    <path d="M117.272 120.827L108.301 130.642C107.374 131.656 108.011 132.822 109.025 133.75C110.039 134.679 111.049 135.021 111.977 134.007L120.948 124.192L117.272 120.827Z"
          fill="white" stroke="#191919" stroke-width="4" stroke-linecap="round" stroke-linejoin="round"/>
    <path d="M207.771 25.1451C208.525 11.643 204.139 2.12858 196.873 2.0012C185.047 1.79347 168.346 28.4973 170.695 61.3598L207.771 25.1451Z"
          fill="#7F42E1" stroke="#191919" stroke-width="4" stroke-linecap="round" stroke-linejoin="round"/>
    <path d="M207.951 25.31C221.321 23.3592 231.182 26.8846 231.953 34.1141C233.209 45.8833 208.118 64.9044 175.202 65.487L207.951 25.31Z"
          fill="#7F42E1" stroke="#191919" stroke-width="4" stroke-linecap="round" stroke-linejoin="round"/>
    <path d="M124.705 98.713C122.979 100.604 107.87 120.378 115.053 126.957C122.567 133.836 140.574 116.715 142.304 114.825C144.03 112.934 141.492 107.798 136.633 103.348C131.774 98.8991 126.434 96.8253 124.707 98.7162L124.705 98.713Z"
          fill="#7F42E1" stroke="#191919" stroke-width="4" stroke-linecap="round" stroke-linejoin="round"/>
    <path d="M124.705 98.713C122.978 100.604 125.516 105.741 130.375 110.19C135.234 114.639 140.575 116.713 142.301 114.822C144.028 112.931 208.024 30.68 205.314 28.2001C202.603 25.7202 126.432 96.8222 124.702 98.7124L124.705 98.713Z"
          fill="white" stroke="#191919" stroke-width="4" stroke-linecap="round" stroke-linejoin="round"/>
    <path d="M207.874 25.3975C215.835 29.3654 222.568 35.4014 219.294 46.2871C215.909 57.5321 191.681 71.6142 173.272 67.6056L207.877 25.3982L207.874 25.3975Z"
          fill="white" stroke="#191919" stroke-width="4" stroke-linecap="round" stroke-linejoin="round"/>
    <path d="M207.874 25.3971C203.219 17.8138 196.611 11.6386 186.07 15.8708C175.176 20.2427 163.096 43.214 167.029 61.888L207.874 25.3971Z"
          fill="white" stroke="#191919" stroke-width="4" stroke-linecap="round" stroke-linejoin="round"/>
</svg>
