<?xml version="1.0" encoding="UTF-8" standalone="no"?>
<svg
        width="234"
        height="245"
        viewBox="0 0 234 245"
        fill="none"
        version="1.1"
        id="svg13"
        xmlns="http://www.w3.org/2000/svg"
>
    <defs
            id="defs13"/>
    <path
            d="M4.20354 125.472C13.8202 160.61 52.1283 207.564 89.7692 230.343C111.813 243.683 128.737 245.774 137.046 238.157C137.078 238.131 137.106 238.104 137.133 238.08L171.75 206.322L42.5976 63.2324L6.84073 96.0976C1.64796 101.672 0.413673 111.618 4.20354 125.472Z"
            fill="#7F42E1"
            stroke="#191919"
            stroke-width="4"
            stroke-linecap="round"
            stroke-linejoin="round"
            id="path1"/>
    <path
            d="M39.0744 93.481C48.6893 128.622 86.9991 175.573 124.64 198.353C162.281 221.132 184.998 211.113 175.383 175.972C165.768 140.831 127.458 93.88 89.8173 71.1005C52.1763 48.321 29.4577 58.3427 39.0744 93.481Z"
            fill="white"
            stroke="#191919"
            stroke-width="4"
            stroke-linecap="round"
            stroke-linejoin="round"
            id="path2"/>
    <path
            d="M56.8908 104.264C63.9934 130.217 92.284 164.893 120.083 181.717C147.882 198.54 164.661 191.139 157.561 165.187C150.459 139.233 122.168 104.557 94.3688 87.7337C66.5696 70.9102 49.7911 78.3116 56.8908 104.264Z"
            fill="#7F42E1"
            stroke="#191919"
            stroke-width="4"
            stroke-linecap="round"
            stroke-linejoin="round"
            id="path3"/>
    <path
            d="M60.8784 115.194C71.6325 139.261 96.0433 167.168 120.087 181.719C120.819 182.162 121.544 182.589 122.263 182.999L138.107 168.468L76.8093 100.552L60.8784 115.194Z"
            fill="#7F42E1"
            stroke="#191919"
            stroke-width="4"
            stroke-linecap="round"
            stroke-linejoin="round"
            id="path4"/>
    <path
            d="M74.8698 115.144C79.4342 131.825 97.6237 154.12 115.492 164.934C133.36 175.747 144.149 170.994 139.584 154.307C135.018 137.621 116.83 115.331 98.9617 104.518C81.0935 93.7041 70.3041 98.4579 74.8698 115.144Z"
            fill="white"
            stroke="#191919"
            stroke-width="4"
            stroke-linecap="round"
            stroke-linejoin="round"
            id="path5"/>
    <path
            d="M91.5775 125.255C93.7864 133.324 102.585 144.107 111.228 149.337C119.87 154.568 125.088 152.267 122.88 144.199C120.671 136.13 111.872 125.347 103.23 120.117C94.5871 114.886 89.3686 117.187 91.5775 125.255Z"
            fill="#7F42E1"
            stroke="#191919"
            stroke-width="4"
            stroke-linecap="round"
            stroke-linejoin="round"
            id="path6"/>
    <path
            d="m 68.543477,63.576989 -13.237292,1.259825 c -1.367706,0.130023 -1.677592,1.422035 -1.548239,2.790483 0.128681,1.369188 0.648209,2.300398 2.016657,2.171048 L 69.011895,68.53852 Z"
            fill="#ffffff"
            stroke="#191919"
            stroke-width="4"
            stroke-linecap="round"
            stroke-linejoin="round"
            id="path7"/>
    <path
            d="m 199.84567,53.338308 c 9.61756,-9.506722 12.74822,-19.504729 7.44552,-24.473876 -8.63028,-8.08799 -38.93036,0.50988 -59.23557,26.455211 z"
            fill="#7f42e1"
            stroke="#191919"
            stroke-width="4"
            stroke-linecap="round"
            stroke-linejoin="round"
            id="path8"/>
    <path
            d="m 199.86852,53.581351 c 11.22338,7.523172 16.17072,16.753104 11.89226,22.631444 -6.96445,9.57017 -38.33191,6.84209 -63.13186,-14.808897 z"
            fill="#7f42e1"
            stroke="#191919"
            stroke-width="4"
            stroke-linecap="round"
            stroke-linejoin="round"
            id="path9"/>
    <path
            d="m 88.891533,52.164929 c -2.54858,0.244327 -27.018943,4.771392 -26.106126,14.469098 0.957004,10.142238 25.796523,9.526758 28.347398,9.285858 2.548581,-0.24433 4.112201,-5.75568 3.494442,-12.315463 -0.618502,-6.558967 -3.187123,-11.679361 -5.736378,-11.435778 z"
            fill="#7f42e1"
            stroke="#191919"
            stroke-width="4"
            stroke-linecap="round"
            stroke-linejoin="round"
            id="path10"/>
    <path
            d="m 88.891533,52.164929 c -2.549322,0.243656 -4.113613,5.755753 -3.495179,12.314794 0.618434,6.559042 3.187659,11.680252 5.736239,11.435922 C 93.681915,75.671985 196.31997,57.612486 195.97409,53.955387 195.62747,50.297618 91.440721,51.92142 88.889711,52.162471 Z"
            fill="#ffffff"
            stroke="#191919"
            stroke-width="4"
            stroke-linecap="round"
            stroke-linejoin="round"
            id="path11"/>
    <path
            d="m 199.75271,53.594579 c 3.24151,8.283379 4.18492,17.276516 -5.54604,23.152386 -10.05433,6.06785 -37.46831,0.2562 -48.4303,-15.066823 l 53.9781,-8.083031 z"
            fill="#ffffff"
            stroke="#191919"
            stroke-width="4"
            stroke-linecap="round"
            stroke-linejoin="round"
            id="path12"/>
    <path
            d="m 199.75298,53.594282 c 1.63562,-8.746441 0.87829,-17.758944 -9.7778,-21.69238 -11.01159,-4.066665 -35.38081,4.863506 -44.99247,21.349948 z"
            fill="#ffffff"
            stroke="#191919"
            stroke-width="4"
            stroke-linecap="round"
            stroke-linejoin="round"
            id="path13"/>
</svg>
